<svg 
          width="12.330863952636719" 
          height="12.999977111816406" fill="none" 
          xmlns="http://www.w3.org/2000/svg">
          <path d="M 11.21438937436987 7.761812605243113 C 12.081757272591322 7.994025175092434 12.612907887475096 8.900936172869146 12.173127169066442 9.683373880554502 C 11.710259992387504 10.50692409289649 11.07001689477184 11.225662351924928 10.291255483609804 11.78352502421991 C 9.06832367433027 12.659400216072822 7.579246849406406 13.084500000471788 6.0779769704148405 12.986024972066396 C 4.576577044066976 12.887712446454973 3.1558019240593214 12.272163249720617 2.0576833072510055 11.244187961010061 C 0.9595646904426895 10.216212672299505 0.2520291055443558 8.839350011180013 0.055647919084302215 7.348412083702139 C -0.14073326737575137 5.857474156224265 0.18616807189765983 4.344598375775032 0.9806835283359584 3.067510541429541 C 1.7751827530811273 1.790585234092412 2.988131441199352 0.8284227294353471 4.4128420926779315 0.34498507762950076 C 5.837520280770251 -0.1384525741763456 7.385938334568993 -0.11310286474905423 8.79404953604974 0.4166472842628453 C 9.690681965663499 0.7539973699447029 10.495294455831905 1.282610023613216 11.155697122503286 1.9582852117407425 C 11.783095911760634 2.6003228784478285 11.504757260614818 3.613835345852004 10.727133909178837 4.062497980894023 L 9.902363109727911 4.538460746321251 C 8.648053257252148 5.262398416753666 8.89550023456184 7.140737629457216 10.29450686132852 7.51546272817761 L 11.21438937436987 7.761812605243113 Z" fill="rgb(176.4146688580513,103.55832830071449,182.74999290704727)"/>
        </svg>