<svg 
          width="12.33087158203125" 
          height="12.999977111816406" fill="none" 
          xmlns="http://www.w3.org/2000/svg">
          <path d="M 1.1164762480570538 7.761812605243113 C 0.24910803130153603 7.994025175092434 -0.2820443533602166 8.900936172869146 0.15773652655446116 9.683373880554502 C 0.6206038732177448 10.50692409289649 1.2608473755425875 11.225662351924928 2.039771631953723 11.78352502421991 C 3.262703890345387 12.659400216072822 4.751617103922488 13.084500000471788 6.253050141951563 12.986024972066396 C 7.754320572272735 12.887712446454973 9.175114141597174 12.272163249720617 10.273184418130846 11.244187961010061 C 11.371417205466757 10.216212672299505 12.078808339759318 8.839350011180013 12.27520586637754 7.348412083702139 C 12.471603392995762 5.857474156224265 12.144814398752636 4.344598375775032 11.350282370382835 3.067510541429541 C 10.555750342013035 1.790585234092412 9.342736717728041 0.8284227294353471 7.918041823187556 0.34498507762950076 C 6.493346928647072 -0.1384525741763456 4.945089847949504 -0.11310286474905423 3.5369781293509455 0.4166472842628453 C 2.6401828596537125 0.7539973699447029 1.835732681705574 1.282610023613216 1.1753297725064868 1.9582852117407425 C 0.5479307528418471 2.6003228784478285 0.826106704686115 3.613835345852004 1.6037303416981812 4.062497980894023 L 2.4285013471340577 4.538460746321251 C 3.6828116602452905 5.262398416753666 3.435527199770539 7.140737629457216 2.0363574515217286 7.51546272817761 L 1.1164762480570538 7.761812605243113 Z" fill="rgb(176.4146688580513,103.55832830071449,182.74999290704727)"/>
        </svg>